<svg width="590" height="590" viewBox="0 0 590 590" fill="none" xmlns="http://www.w3.org/2000/svg"><path d="M191.197 432.359h-5.762l-2.766 65.822a9.542 9.542 0 0 1-8.711 9.219l-58.309 5.162a9.53 9.53 0 0 1-9.808-6.086 9.547 9.547 0 0 1-.609-4.054l3.549-68.219-80.157 1.844a9.54 9.54 0 0 1-9.634-11.155l22.171-131.459a9.54 9.54 0 0 1 9.22-7.974h45.402a9.532 9.532 0 0 1 7.21 3.491 9.548 9.548 0 0 1 2.008 7.755l-16.455 93.893 22.678-.691 6.084-121.134a9.539 9.539 0 0 1 2.907-6.539 9.538 9.538 0 0 1 6.635-2.68h55.312a9.548 9.548 0 0 1 8.938 6.177 9.55 9.55 0 0 1 .604 3.779l-4.61 117.678h3.365a9.54 9.54 0 0 1 10.049 9.218v26.32a9.54 9.54 0 0 1-9.311 9.633ZM559.947 234.156h-5.762l-2.766 65.822a9.542 9.542 0 0 1-8.711 9.219l-58.309 5.162a9.535 9.535 0 0 1-7.553-2.662 9.542 9.542 0 0 1-2.864-7.478l3.549-68.357-80.157 1.797a9.539 9.539 0 0 1-9.634-11.154l22.171-131.414a9.545 9.545 0 0 1 9.219-7.974h45.403a9.54 9.54 0 0 1 9.218 11.247l-16.455 94.031 22.678-.691 6.084-121.135a9.54 9.54 0 0 1 9.542-9.218h55.312a9.54 9.54 0 0 1 9.542 9.956l-4.61 117.493h3.365a9.547 9.547 0 0 1 7.027 2.561 9.544 9.544 0 0 1 3.022 6.842v26.32a9.54 9.54 0 0 1-9.311 9.633Z" fill="#95A3EE"/><path d="m349.529 251.856 3.18 2.213a68.4 68.4 0 0 1 19.636 87.578 54.712 54.712 0 0 1-74.072 22.355 43.787 43.787 0 0 1-17.885-59.276 35.026 35.026 0 0 1 20.746-16.993 35.035 35.035 0 0 1 26.685 2.658 28.024 28.024 0 0 1 11.431 37.935 22.41 22.41 0 0 1-13.254 10.896 22.403 22.403 0 0 1-17.076-1.677 17.92 17.92 0 0 1-8.699-10.627 17.928 17.928 0 0 1 1.37-13.665 14.338 14.338 0 0 1 19.406-5.854 11.48 11.48 0 0 1 4.609 15.534 9.22 9.22 0 0 1-12.445 3.733 7.312 7.312 0 0 1-3.569-4.354 7.324 7.324 0 0 1 .573-5.602 5.847 5.847 0 0 1 3.394-2.954 5.861 5.861 0 0 1 4.488.327 4.597 4.597 0 0 1 2.323 2.768 4.607 4.607 0 0 1-.387 3.593" stroke="#00ADFE" stroke-width="4" stroke-miterlimit="10" stroke-linecap="round"/><path d="M258.125 419.453a106.892 106.892 0 0 1-29.592-135.7 85.502 85.502 0 0 1 99.747-41.484" stroke="#00ADFE" stroke-width="3" stroke-miterlimit="10" stroke-linecap="round"/><path d="M363.587 441.302a133.22 133.22 0 0 1-60.475-.968" stroke="#00ADFE" stroke-width="3" stroke-miterlimit="10" stroke-linecap="round" stroke-dasharray="0.09 8.71"/><path d="M453.194 373.866a133.222 133.222 0 0 1-31.482 38.904" stroke="#00ADFE" stroke-width="3" stroke-miterlimit="10" stroke-linecap="round"/><path d="M288.178 392.166a68.404 68.404 0 0 1-27.932-92.557 54.71 54.71 0 0 1 74.072-22.355 43.785 43.785 0 0 1 17.885 59.23 35.033 35.033 0 0 1-47.431 14.289 28.024 28.024 0 0 1-11.431-37.935 22.41 22.41 0 0 1 13.254-10.896 22.403 22.403 0 0 1 17.076 1.678 17.914 17.914 0 0 1 8.699 10.626 17.928 17.928 0 0 1-1.371 13.665 14.334 14.334 0 0 1-19.405 5.854 11.48 11.48 0 0 1-4.609-15.534 9.22 9.22 0 0 1 12.445-3.733 7.296 7.296 0 0 1 2.219 1.821 7.31 7.31 0 0 1 1.623 5.391 7.324 7.324 0 0 1-.846 2.744 5.858 5.858 0 0 1-5.777 3.08 5.844 5.844 0 0 1-2.197-.683 4.597 4.597 0 0 1-2.323-2.768 4.617 4.617 0 0 1 .387-3.593" stroke="#00ADFE" stroke-width="4" stroke-miterlimit="10" stroke-linecap="round"/><path d="M281.172 197.604a132.978 132.978 0 0 1 78.958 14.934 106.836 106.836 0 0 1 51.88 63.27 106.84 106.84 0 0 1-8.09 81.419 85.506 85.506 0 0 1-88.639 44.065" stroke="#00ADFE" stroke-width="3" stroke-miterlimit="10" stroke-linecap="round"/><path d="M221.25 220.374a133.703 133.703 0 0 1 18.115-10.509" stroke="#00ADFE" stroke-width="4" stroke-miterlimit="10" stroke-linecap="round" stroke-dasharray="0.09 8.92"/><path d="M315.374 354.599c19.296 0 34.939-15.333 34.939-34.247 0-18.915-15.643-34.248-34.939-34.248-19.297 0-34.939 15.333-34.939 34.248 0 18.914 15.642 34.247 34.939 34.247Z" fill="#fff" stroke="#393C54" stroke-width="6" stroke-linecap="round" stroke-linejoin="round"/><path d="M254.529 274.258c10.183 0 18.438-8.255 18.438-18.438 0-10.182-8.255-18.437-18.438-18.437-10.182 0-18.437 8.255-18.437 18.437 0 10.183 8.255 18.438 18.437 18.438ZM182.716 374.88l2.166-5.531a1.844 1.844 0 0 1 3.457 0l2.167 5.531a16.733 16.733 0 0 0 9.218 9.219l5.532 2.167a1.842 1.842 0 0 1 0 3.457l-5.532 2.166a16.741 16.741 0 0 0-9.218 9.219l-2.167 5.531a1.844 1.844 0 0 1-3.457 0l-2.166-5.531a16.731 16.731 0 0 0-9.219-9.219l-5.531-2.166a1.844 1.844 0 0 1 0-3.457l5.531-2.167a16.729 16.729 0 0 0 9.219-9.219ZM433.281 222.495l2.167-5.532a1.842 1.842 0 0 1 3.457 0l2.166 5.532a16.741 16.741 0 0 0 9.219 9.218l5.531 2.167a1.842 1.842 0 0 1 0 3.457l-5.531 2.166a16.731 16.731 0 0 0-9.219 9.219l-2.166 5.531a1.844 1.844 0 0 1-3.457 0l-2.167-5.024a16.729 16.729 0 0 0-9.218-9.219l-5.532-2.166a1.844 1.844 0 0 1 0-3.457l5.532-2.167a16.737 16.737 0 0 0 9.218-9.725ZM440.702 448.17a7.375 7.375 0 1 0 0-14.75 7.375 7.375 0 0 0 0 14.75ZM193.686 300.716a7.375 7.375 0 1 0 0-14.75 7.375 7.375 0 0 0 0 14.75ZM394.01 201.153a7.375 7.375 0 1 0 0-14.75 7.375 7.375 0 0 0 0 14.75Z" fill="#F8DC25"/></svg>