<svg width="48" height="48" viewBox="0 0 48 48" fill="none" xmlns="http://www.w3.org/2000/svg"><path d="M24 47.438c12.944 0 23.438-10.494 23.438-23.438C47.438 11.056 36.944.562 24 .562 11.056.563.562 11.056.562 24 .563 36.944 11.056 47.438 24 47.438Z" fill="#95A3EE" fill-opacity=".4"/><path d="M47.438 24c0-1.425-.132-2.822-.376-4.172-.037-.047-.075-.103-.121-.15a4224.511 4224.511 0 0 1-9.178-9.178c-.526-.525-1.116-.647-1.81-.384-7.94 3.103-15.89 6.215-23.831 9.318-.394.16-.797.3-1.19.47-.6.252-.948.805-.929 1.462.01.459.216.825.534 1.143 7.5 7.5 15.01 15 22.51 22.51.14.14.281.272.412.412C41.7 41.803 47.437 33.571 47.437 24Z" fill="#95A3EE"/><path d="M37.612 10.397s0-.01 0 0l-.009-.01a1.523 1.523 0 0 0-1.64-.337l-25.05 9.787c-.666.263-1.05.91-.966 1.613a1.523 1.523 0 0 0 1.322 1.34l12.243 1.65c.02 0 .038.02.047.047l1.65 12.244a1.523 1.523 0 0 0 1.529 1.331 1.52 1.52 0 0 0 1.425-.974l9.796-25.05c.216-.582.094-1.2-.347-1.641ZM11.42 21.28c-.01-.037.01-.047.028-.056l23.437-9.169-10.95 10.969c-.075-.019-12.459-1.697-12.459-1.697-.037-.01-.047-.01-.056-.047Zm15.356 15.263c-.01.028-.01.037-.056.028-.038-.01-.038-.019-.047-.047 0 0-1.678-12.394-1.697-12.46l10.96-10.959-9.16 23.438Z" fill="#fff"/></svg>