<svg width="590" height="590" viewBox="0 0 590 590" fill="none" xmlns="http://www.w3.org/2000/svg"><g clip-path="url(#a)"><path d="M295 590c162.924 0 295-132.076 295-295S457.924 0 295 0 0 132.076 0 295s132.076 295 295 295Z" fill="#95A3EE" fill-opacity=".4"/><path d="M338.195 586.82c134.372-19.724 239.23-130.025 250.685-266.917L426.077 157.108l-1.265 1.269-1.254-1.248-7.98-7.98-1.083-1.086a3.013 3.013 0 0 0-1.49-.398H176.98c-1.634 0-3.018 1.336-3.018 3.018v6.443h-10.06v50.229l20.056 20.057h-6.979c-1.635 0-3.018 1.339-3.018 3.018v6.446h-10.06v50.227l20.056 20.06h-6.98c-1.634 0-3.018 1.386-3.018 3.018v6.434h-10.06v50.291l60.871 60.867-38.017 7.608L338.195 586.82Z" fill="#95A3EE"/><path d="M300.209 386.951h-10.431v34.583h10.431v-34.583ZM403.236 424.948H186.765v10.421h216.471v-10.421Z" fill="#CEE2F2"/><path d="M307.16 417.985h-24.344v24.343h24.344v-24.343ZM403.236 216.825H186.765v170.13h216.471v-170.13Z" fill="#5D6D7E"/><path d="M416.023 213.805a3.025 3.025 0 0 1-3.012 3.012H176.979a3.027 3.027 0 0 1-3.018-3.012v-63.14a3.032 3.032 0 0 1 3.018-3.014h236.032a3.025 3.025 0 0 1 3.012 3.014v63.14Z" fill="#CEE2F2"/><path d="M408.987 154.698H180.982v55.085h228.005v-55.085Z" fill="#F2F9FF"/><path d="M393.663 182.227a6.344 6.344 0 0 1-6.339 6.348 6.35 6.35 0 0 1-6.346-6.348c0-3.496 2.846-6.339 6.346-6.339a6.344 6.344 0 0 1 6.339 6.339ZM210.6 168.563h-5.575v5.563h5.575v-5.563ZM227.786 168.563h-5.561v5.563h5.561v-5.563ZM245.007 168.563h-5.584v5.563h5.584v-5.563ZM262.18 168.563h-5.582v5.563h5.582v-5.563ZM279.383 168.563h-5.564v5.563h5.564v-5.563ZM210.6 190.334h-5.575v5.578h5.575v-5.578ZM227.786 190.334h-5.561v5.578h5.561v-5.578ZM245.007 190.334h-5.584v5.578h5.584v-5.578ZM262.18 190.334h-5.582v5.578h5.582v-5.578ZM279.383 190.334h-5.564v5.578h5.564v-5.578ZM218.949 179.443h-5.575v5.582h5.575v-5.582ZM236.116 179.443h-5.573v5.582h5.573v-5.582ZM253.329 179.443h-5.582v5.582h5.582v-5.582ZM270.538 179.443h-5.569v5.582h5.569v-5.582ZM287.705 179.443h-5.567v5.582h5.567v-5.582ZM358.159 179.443h-47.612v5.582h47.612v-5.582ZM426.096 157.117h-10.057v50.239h10.057v-50.239Z" fill="#5D6D7E"/><path d="M422.646 162.082c0 .881-.723 1.596-1.6 1.596a1.599 1.599 0 0 1-1.584-1.596c0-.87.722-1.587 1.584-1.587.874 0 1.6.717 1.6 1.587ZM422.646 202.373c0 .874-.723 1.591-1.6 1.591a1.599 1.599 0 0 1-1.584-1.591 1.59 1.59 0 0 1 1.584-1.584c.874 0 1.6.705 1.6 1.584Z" fill="#F2F9FF"/><path d="M173.947 157.117h-10.045v50.239h10.045v-50.239Z" fill="#5D6D7E"/><path d="M170.536 162.082a1.6 1.6 0 0 1-1.599 1.596 1.59 1.59 0 0 1 0-3.183 1.6 1.6 0 0 1 1.599 1.587ZM168.947 203.966a1.597 1.597 0 1 0-.001-3.193 1.597 1.597 0 0 0 .001 3.193Z" fill="#F2F9FF"/><path d="M416.023 293.561a3.021 3.021 0 0 1-3.012 3.012H176.979a3.025 3.025 0 0 1-3.018-3.012v-63.125a3.027 3.027 0 0 1 3.018-3.018h236.032a3.02 3.02 0 0 1 3.012 3.018v63.125Z" fill="#CEE2F2"/><path d="M408.987 234.436H180.982v55.086h228.005v-55.086Z" fill="#F2F9FF"/><path d="M387.305 268.332a6.342 6.342 0 1 0 .001-12.685 6.342 6.342 0 0 0-.001 12.685ZM210.6 248.331h-5.575v5.575h5.575v-5.575ZM227.786 248.331h-5.561v5.575h5.561v-5.575ZM245.007 248.331h-5.584v5.575h5.584v-5.575ZM262.18 248.331h-5.582v5.575h5.582v-5.575ZM279.383 248.331h-5.564v5.575h5.564v-5.575ZM210.6 270.072h-5.575v5.576h5.575v-5.576ZM227.786 270.072h-5.561v5.576h5.561v-5.576ZM245.007 270.072h-5.584v5.576h5.584v-5.576ZM262.18 270.072h-5.582v5.576h5.582v-5.576ZM279.383 270.072h-5.564v5.576h5.564v-5.576ZM218.949 259.216h-5.575v5.573h5.575v-5.573ZM236.116 259.216h-5.573v5.573h5.573v-5.573ZM253.329 259.216h-5.582v5.573h5.582v-5.573ZM270.538 259.216h-5.569v5.573h5.569v-5.573ZM287.705 259.216h-5.567v5.573h5.567v-5.573ZM358.159 259.216h-47.612v5.573h47.612v-5.573ZM426.096 236.885h-10.057v50.239h10.057v-50.239Z" fill="#5D6D7E"/><path d="M422.646 241.849a1.6 1.6 0 0 1-1.6 1.587 1.596 1.596 0 0 1-1.584-1.587c0-.879.722-1.599 1.584-1.599.874.001 1.6.724 1.6 1.599ZM422.646 282.135c0 .874-.723 1.596-1.6 1.596-.862 0-1.584-.72-1.584-1.596 0-.876.722-1.587 1.584-1.587a1.6 1.6 0 0 1 1.6 1.587Z" fill="#F2F9FF"/><path d="M173.947 236.885h-10.045v50.239h10.045v-50.239Z" fill="#5D6D7E"/><path d="M168.947 243.445a1.596 1.596 0 1 0 0-3.192 1.596 1.596 0 0 0 0 3.192ZM168.947 283.734a1.597 1.597 0 1 0-.001-3.193 1.597 1.597 0 0 0 .001 3.193Z" fill="#F2F9FF"/><path d="M416.023 373.326c0 1.643-1.359 3.003-3.012 3.003H176.979c-1.653 0-3.018-1.36-3.018-3.003v-63.134a3.036 3.036 0 0 1 3.018-3.018h236.032c1.655 0 3.012 1.369 3.012 3.018v63.134Z" fill="#CEE2F2"/><path d="M408.987 314.205H180.982v55.109h228.005v-55.109Z" fill="#F2F9FF"/><path d="M393.663 341.754a6.34 6.34 0 0 1-6.339 6.337c-3.499 0-6.346-2.841-6.346-6.337a6.338 6.338 0 0 1 6.346-6.337 6.33 6.33 0 0 1 6.339 6.337ZM210.6 328.099h-5.575v5.569h5.575v-5.569ZM227.786 328.099h-5.561v5.569h5.561v-5.569ZM245.007 328.099h-5.584v5.569h5.584v-5.569ZM262.18 328.099h-5.582v5.569h5.582v-5.569ZM279.383 328.099h-5.564v5.569h5.564v-5.569ZM210.6 349.84h-5.575v5.588h5.575v-5.588ZM227.786 349.84h-5.561v5.588h5.561v-5.588ZM245.007 349.84h-5.584v5.588h5.584v-5.588ZM262.18 349.84h-5.582v5.588h5.582v-5.588ZM279.383 349.84h-5.564v5.588h5.564v-5.588ZM218.949 338.985h-5.575v5.558h5.575v-5.558ZM236.116 338.985h-5.573v5.558h5.573v-5.558ZM253.329 338.985h-5.582v5.558h5.582v-5.558ZM270.538 338.985h-5.569v5.558h5.569v-5.558ZM287.705 338.985h-5.567v5.558h5.567v-5.558ZM358.159 338.985h-47.612v5.558h47.612v-5.558ZM426.096 316.624h-10.057v50.267h10.057v-50.267Z" fill="#5D6D7E"/><path d="M422.646 321.612c0 .874-.723 1.585-1.6 1.585a1.594 1.594 0 0 1-1.584-1.585 1.592 1.592 0 0 1 3.184 0ZM422.646 361.897c0 .876-.723 1.596-1.6 1.596-.862 0-1.584-.72-1.584-1.596 0-.882.722-1.584 1.584-1.584.874 0 1.6.702 1.6 1.584Z" fill="#F2F9FF"/><path d="M173.947 316.624h-10.045v50.267h10.045v-50.267Z" fill="#5D6D7E"/><path d="M170.536 321.612c0 .874-.72 1.585-1.599 1.585-.882 0-1.59-.711-1.59-1.585a1.58 1.58 0 0 1 1.59-1.587 1.588 1.588 0 0 1 1.599 1.587ZM168.947 363.502a1.596 1.596 0 1 0 0-3.192 1.596 1.596 0 0 0 0 3.192Z" fill="#F2F9FF"/></g><defs><clipPath id="a"><path fill="#fff" d="M0 0h590v590H0z"/></clipPath></defs></svg>