<svg width="48" height="48" viewBox="0 0 48 48" fill="none" xmlns="http://www.w3.org/2000/svg"><g clip-path="url(#a)" fill="#95A3EE"><path d="M24 14.625a9.375 9.375 0 1 0 0 18.75 9.375 9.375 0 0 0 0-18.75Zm0 16.5a7.125 7.125 0 1 1 0-14.25 7.125 7.125 0 0 1 0 14.25Z"/><path d="M45.375 18h-3.349a.375.375 0 0 1-.352-.255 18.672 18.672 0 0 0-.75-1.819.376.376 0 0 1 .067-.431l2.367-2.37a2.624 2.624 0 0 0 0-3.713l-4.774-4.77a2.624 2.624 0 0 0-3.713 0L32.505 7.01a.375.375 0 0 1-.431.067c-.593-.282-1.2-.532-1.819-.75A.375.375 0 0 1 30 5.974V2.625A2.625 2.625 0 0 0 27.375 0h-6.75A2.625 2.625 0 0 0 18 2.625v3.349a.375.375 0 0 1-.255.352c-.619.218-1.226.469-1.819.75a.375.375 0 0 1-.431-.067l-2.37-2.367a2.625 2.625 0 0 0-3.713 0l-4.77 4.774a2.625 2.625 0 0 0 0 3.713l2.367 2.366a.375.375 0 0 1 .067.431c-.282.593-.532 1.2-.75 1.819a.375.375 0 0 1-.352.255H2.625A2.625 2.625 0 0 0 0 20.625v6.75A2.625 2.625 0 0 0 2.625 30h3.349a.375.375 0 0 1 .352.255c.218.619.469 1.226.75 1.819a.375.375 0 0 1-.067.431l-2.367 2.37a2.625 2.625 0 0 0 0 3.712l4.774 4.774a2.624 2.624 0 0 0 3.713 0l2.366-2.366a.375.375 0 0 1 .431-.067c.593.281 1.2.532 1.819.75a.374.374 0 0 1 .255.352v3.345A2.625 2.625 0 0 0 20.625 48h6.75A2.625 2.625 0 0 0 30 45.375v-3.349a.375.375 0 0 1 .255-.352 18.672 18.672 0 0 0 1.819-.75.376.376 0 0 1 .431.067l2.37 2.367a2.624 2.624 0 0 0 3.712 0l4.774-4.774a2.623 2.623 0 0 0 0-3.713l-2.366-2.366a.375.375 0 0 1-.067-.431c.281-.593.532-1.2.75-1.819A.374.374 0 0 1 42.03 30h3.345A2.625 2.625 0 0 0 48 27.375v-6.75A2.625 2.625 0 0 0 45.375 18Zm.375 9.375a.375.375 0 0 1-.375.375h-3.349a2.625 2.625 0 0 0-2.475 1.759 16.474 16.474 0 0 1-.66 1.597 2.625 2.625 0 0 0 .507 3l2.366 2.366a.375.375 0 0 1 0 .53l-4.77 4.765a.375.375 0 0 1-.529 0l-2.366-2.366a2.626 2.626 0 0 0-3-.506c-.522.248-1.056.468-1.602.66a2.625 2.625 0 0 0-1.755 2.475v3.345a.375.375 0 0 1-.375.375h-6.742a.375.375 0 0 1-.375-.375v-3.349a2.625 2.625 0 0 0-1.759-2.475 16.478 16.478 0 0 1-1.597-.66 2.624 2.624 0 0 0-3 .507l-2.367 2.366a.375.375 0 0 1-.528 0l-4.767-4.77a.375.375 0 0 1 0-.529L8.6 34.099a2.625 2.625 0 0 0 .506-3 16.452 16.452 0 0 1-.66-1.602 2.625 2.625 0 0 0-2.471-1.747H2.625a.375.375 0 0 1-.375-.375v-6.75a.375.375 0 0 1 .375-.375h3.349a2.625 2.625 0 0 0 2.475-1.759c.192-.543.412-1.077.66-1.597a2.625 2.625 0 0 0-.507-3l-2.366-2.367a.375.375 0 0 1 0-.528l4.77-4.767a.375.375 0 0 1 .529 0L13.901 8.6a2.625 2.625 0 0 0 3 .506 16.452 16.452 0 0 1 1.602-.66 2.625 2.625 0 0 0 1.747-2.471V2.625a.375.375 0 0 1 .375-.375h6.75a.375.375 0 0 1 .375.375v3.349a2.625 2.625 0 0 0 1.759 2.475c.543.192 1.077.412 1.597.66a2.625 2.625 0 0 0 3-.507l2.366-2.366a.375.375 0 0 1 .53 0l4.773 4.774a.375.375 0 0 1 0 .529l-2.366 2.366a2.626 2.626 0 0 0-.506 3c.248.522.468 1.056.66 1.601a2.624 2.624 0 0 0 2.474 1.755h3.338a.375.375 0 0 1 .375.375v6.739Z"/></g><defs><clipPath id="a"><path fill="#fff" d="M0 0h48v48H0z"/></clipPath></defs></svg>